<svg width="128" height="63" viewBox="0 0 128 63" fill="none" xmlns="http://www.w3.org/2000/svg">
<g clip-path="url(#clip0)">
<path d="M11.3667 62.7899V58.1215H10.34V57.3765H11.3667V56.6954C11.3667 56.054 11.5311 55.5646 11.86 55.2296C12.1889 54.8946 12.6445 54.7271 13.2266 54.7271C13.5711 54.7271 13.8711 54.7645 14.1311 54.8418V55.6088C13.9823 55.5691 13.8422 55.5427 13.7178 55.5272C13.5911 55.5118 13.4689 55.5052 13.3467 55.5052C12.6044 55.5052 12.2333 55.8821 12.2333 56.6359V57.3787H14.0933V58.1237H12.2333V62.7921H11.3667V62.7899ZM15.4333 62.7899V57.3765H16.3V58.3177C16.4711 57.976 16.6911 57.7137 16.9578 57.5308C17.2245 57.3478 17.5334 57.2553 17.8845 57.2553C18.0533 57.2553 18.2133 57.2707 18.3666 57.3037V58.1634C18.2822 58.1524 18.1911 58.1435 18.0956 58.1369C17.9978 58.1303 17.9044 58.1259 17.8134 58.1259C17.4155 58.1259 17.0911 58.2471 16.8445 58.4874C16.5978 58.7276 16.4155 59.0494 16.2978 59.4528V62.7876H15.4333V62.7899ZM22.2378 62.911C21.6934 62.911 21.2222 62.7899 20.8222 62.5473C20.4222 62.3049 20.1156 61.9699 19.8978 61.5467C19.6801 61.1213 19.5711 60.6364 19.5711 60.0898C19.5711 59.5387 19.6801 59.0516 19.8978 58.6262C20.1156 58.2008 20.4245 57.868 20.8222 57.6256C21.22 57.3831 21.6934 57.2619 22.2378 57.2619H22.3467C22.8912 57.2619 23.3622 57.3831 23.7622 57.6256C24.1601 57.868 24.4688 58.203 24.6866 58.6262C24.9045 59.0516 25.0133 59.5387 25.0133 60.0898C25.0133 60.6364 24.9045 61.1235 24.6866 61.5467C24.4688 61.9721 24.1601 62.3049 23.7622 62.5473C23.3644 62.7899 22.8912 62.911 22.3467 62.911H22.2378ZM22.2423 62.1153H22.34C22.8845 62.1153 23.3156 61.9303 23.6333 61.5599C23.9511 61.1896 24.1111 60.6981 24.1111 60.0854C24.1111 59.4682 23.9511 58.9766 23.6333 58.6085C23.3156 58.2405 22.8845 58.0554 22.34 58.0554H22.2423C21.6978 58.0554 21.2666 58.2405 20.9488 58.6085C20.6311 58.9766 20.4711 59.4682 20.4711 60.0854C20.4711 60.6981 20.6311 61.1896 20.9488 61.5599C21.2666 61.9303 21.6978 62.1153 22.2423 62.1153ZM26.7823 62.7899V57.3765H27.6488V58.3838C27.8467 58.0355 28.0978 57.76 28.4067 57.5595C28.7134 57.3589 29.0711 57.2575 29.4755 57.2575H29.5844C30.4911 57.2575 31.0755 57.6895 31.3333 58.5513C31.5423 58.1524 31.8133 57.8371 32.1488 57.6057C32.4845 57.3743 32.8689 57.2575 33.3044 57.2575H33.42C34.0333 57.2575 34.5022 57.4625 34.8267 57.8702C35.1511 58.2779 35.3111 58.8621 35.3111 59.6203V62.7921H34.4445V59.7437C34.4445 58.6196 34.0289 58.0576 33.2 58.0576H33.1022C32.7111 58.0576 32.3755 58.1854 32.0933 58.4432C31.8111 58.7011 31.6067 59.0274 31.48 59.4219V62.7899H30.6134V59.7437C30.6134 58.6196 30.2 58.0576 29.3734 58.0576H29.2688C28.8778 58.0576 28.5422 58.1854 28.2622 58.4432C27.9822 58.7011 27.7778 59.0274 27.6511 59.4219V62.7899H26.7823ZM48.3244 54.985V56.0253C48.3244 56.0936 48.2778 56.1378 48.2111 56.1378H43.7067V58.2647H47.4244C47.4933 58.2647 47.5378 58.311 47.5378 58.3771V59.4175C47.5378 59.4858 47.4911 59.5299 47.4244 59.5299H43.7067V62.6752C43.7067 62.7435 43.66 62.7876 43.5933 62.7876H42.4645C42.3955 62.7876 42.3511 62.7413 42.3511 62.6752V54.985C42.3511 54.9167 42.3977 54.8726 42.4645 54.8726H48.2111C48.28 54.8726 48.3244 54.9189 48.3244 54.985ZM57.5156 62.7899H56.2733C56.2045 62.7899 56.1599 62.7568 56.1422 62.6884C55.9778 62.0382 55.7777 61.3527 55.5489 60.6628H51.7334C51.5044 61.3527 51.3066 62.0382 51.1467 62.6884C51.1289 62.7568 51.0845 62.7899 51.0155 62.7899H49.8178C49.7377 62.7899 49.6933 62.7435 49.7155 62.6664C50.4334 60.1449 51.5289 57.3611 52.6355 55.0203C52.6867 54.9123 52.7489 54.8726 52.8578 54.8726H54.4777C54.5867 54.8726 54.6489 54.9123 54.7 55.0203C55.8177 57.3567 56.8956 60.1449 57.62 62.6664C57.6422 62.7457 57.5956 62.7899 57.5156 62.7899ZM55.1266 59.4417C54.7111 58.3 54.2489 57.1561 53.7756 56.1157H53.5066C53.0334 57.1561 52.5666 58.2978 52.1489 59.4417H55.1266ZM59.5555 58.8995C59.5555 56.4441 61.1866 54.7249 63.5133 54.7249H63.6844C65.1445 54.7249 66.2733 55.461 66.8711 56.5234C66.9111 56.5919 66.9 56.6469 66.8311 56.6822L65.8267 57.1737C65.7578 57.2068 65.6733 57.2068 65.6267 57.1229C65.2045 56.4001 64.5711 56.0143 63.6378 56.0143H63.4666C62.0022 56.0143 60.9912 57.1671 60.9912 58.8422C60.9912 60.5218 61.9823 61.6481 63.4666 61.6481H63.6378C64.5956 61.6481 65.1534 61.3262 65.5822 60.8348C65.64 60.7731 65.7022 60.762 65.7712 60.7951L66.8022 61.2932C66.8422 61.3152 66.86 61.3439 66.86 61.3726C66.86 61.4013 66.8489 61.4232 66.8267 61.4563C66.1933 62.3732 65.0533 62.9375 63.6622 62.9375H63.4911C61.1244 62.9375 59.5555 61.3262 59.5555 58.8995ZM75.9555 61.6371V62.6774C75.9555 62.7457 75.9089 62.7899 75.8422 62.7899H69.8555C69.7867 62.7899 69.7422 62.7435 69.7422 62.6774V54.9872C69.7422 54.9189 69.7889 54.8748 69.8555 54.8748H75.74C75.8089 54.8748 75.8533 54.9211 75.8533 54.9872V56.0275C75.8533 56.0959 75.8067 56.14 75.74 56.14H71.0978V58.1986H74.8733C74.9422 58.1986 74.9866 58.2449 74.9866 58.311V59.3403C74.9866 59.4086 74.94 59.4528 74.8733 59.4528H71.0978V61.5224H75.8422C75.9089 61.5224 75.9555 61.5688 75.9555 61.6371ZM86.2623 60.6187C86.2623 62.0052 85.1911 62.7899 83.2977 62.7899H79.3755C79.3067 62.7899 79.2622 62.7435 79.2622 62.6774V54.9872C79.2622 54.9189 79.3089 54.8748 79.3755 54.8748H82.9511C84.7933 54.8748 85.7955 55.5977 85.7955 56.9224C85.7955 57.7931 85.3511 58.3639 84.4489 58.6306C85.7156 58.8929 86.2623 59.6468 86.2623 60.6187ZM82.9222 56.1047H80.6178V58.2317H82.9222C83.9533 58.2317 84.4267 57.8989 84.4267 57.1693C84.4267 56.4397 83.9533 56.1047 82.9222 56.1047ZM84.8711 60.4997C84.8711 59.7635 84.38 59.4307 83.3022 59.4307H80.6178V61.5577H83.3022C84.3978 61.5577 84.8711 61.2403 84.8711 60.4997ZM88.6511 58.8312C88.6511 56.4441 90.2467 54.7249 92.7556 54.7249H92.9266C95.4355 54.7249 97.0311 56.4441 97.0311 58.8312C97.0311 61.2183 95.4355 62.9375 92.9266 62.9375H92.7556C90.2489 62.9375 88.6511 61.2183 88.6511 58.8312ZM92.9288 61.6481C94.5645 61.6481 95.5978 60.5349 95.5978 58.8312C95.5978 57.1296 94.5667 56.0143 92.9288 56.0143H92.7578C91.1222 56.0143 90.0889 57.1274 90.0889 58.8312C90.0889 60.5327 91.12 61.6481 92.7578 61.6481H92.9288ZM99.3488 58.8312C99.3488 56.4441 100.944 54.7249 103.453 54.7249H103.624C106.133 54.7249 107.728 56.4441 107.728 58.8312C107.728 61.2183 106.133 62.9375 103.624 62.9375H103.453C100.944 62.9375 99.3488 61.2183 99.3488 58.8312ZM103.624 61.6481C105.26 61.6481 106.293 60.5349 106.293 58.8312C106.293 57.1296 105.262 56.0143 103.624 56.0143H103.453C101.818 56.0143 100.784 57.1274 100.784 58.8312C100.784 60.5327 101.816 61.6481 103.453 61.6481H103.624ZM117.564 62.7899H116.093C115.996 62.7899 115.955 62.7678 115.893 62.6929C114.863 61.4872 113.642 60.2903 112.604 59.4064H111.942V62.6752C111.942 62.7435 111.895 62.7876 111.829 62.7876H110.7C110.631 62.7876 110.587 62.7413 110.587 62.6752V54.985C110.587 54.9167 110.633 54.8726 110.7 54.8726H111.829C111.897 54.8726 111.942 54.9189 111.942 54.985V58.106H112.616C113.726 57.1098 114.754 56.0364 115.591 54.9563C115.649 54.8836 115.693 54.8726 115.762 54.8726H117.154C117.223 54.8726 117.255 54.9057 117.255 54.9519C117.255 54.974 117.245 55.0027 117.215 55.0356C115.989 56.5345 114.776 57.7622 113.651 58.7121C115.065 59.9002 116.405 61.2227 117.625 62.6487C117.689 62.7214 117.655 62.7899 117.564 62.7899ZM128 0.9375H121.206V36.9397H128V0.9375ZM96.2156 23.4637C96.2156 18.9894 99.0534 15.5708 103.616 15.5708C107.976 15.5708 111.067 18.9386 111.067 23.4637C111.067 28.0395 108.126 31.4075 103.616 31.4075C99.2067 31.4075 96.2156 28.0395 96.2156 23.4637ZM111.171 36.9397H117.66V10.0384H111.069V12.4518C109.7 10.9443 106.811 9.58651 103.211 9.58651C94.9489 9.58651 89.4222 15.52 89.4222 23.4637C89.4222 31.8108 94.9978 37.3916 103.211 37.3916C107.571 37.3916 110.155 35.582 111.169 34.275V36.9397H111.171ZM83.5933 5.51328H76.8V10.0384H74.1645V16.0225H76.8V29.4479C76.8 34.7775 79.6378 37.191 85.0622 37.191C86.8867 37.191 88.2556 36.9905 88.5089 36.9397V31.0062H87.0378C84.4533 31.0062 83.5911 30.0012 83.5911 27.3871V16.0225H88.3555V10.0384H83.5911V5.51328H83.5933ZM72.3889 9.98766C72.2378 9.93697 71.9845 9.88628 71.4755 9.88628C68.6355 9.88628 67.5711 11.5967 67.1156 12.2491V10.0384H60.7778V36.9397H67.5711V20.7989C67.5711 18.0834 68.6355 16.4744 72.3866 16.2231V9.98766H72.3889ZM36.8533 23.5144C36.8533 18.9894 39.7422 15.67 44.2044 15.67C48.5645 15.67 51.6066 19.0378 51.6066 23.5144C51.6066 27.991 48.7178 31.3083 44.2555 31.3083C39.8956 31.306 36.8533 28.0395 36.8533 23.5144ZM30.06 23.5629C30.06 31.5065 35.7378 37.3894 44.2044 37.3894C52.5689 37.3894 58.3978 31.3567 58.3978 23.4615C58.3978 15.5178 52.7711 9.5843 44.2044 9.5843C36.0423 9.58651 30.06 15.5686 30.06 23.5629ZM6.59111 23.5144C6.59111 18.9386 9.43111 15.5708 14.0422 15.5708C18.5533 15.5708 21.5444 18.9386 21.5444 23.5144C21.5444 28.0901 18.7066 31.4097 14.0933 31.4097C9.58222 31.4075 6.59111 28.0901 6.59111 23.5144ZM6.79333 34.826C8.06 35.9325 10.6977 37.3894 14.4489 37.3894C23.0667 37.3894 28.34 31.2046 28.34 23.4108C28.34 15.3151 22.9667 9.5843 14.7533 9.5843C9.83555 9.5843 7.50445 11.6452 6.59111 12.6525V10.0384H0V44.9826H6.79333V34.826Z" fill="white"/>
</g>
<defs>
<clipPath id="clip0">
<rect width="128" height="62" fill="white" transform="translate(0 0.9375)"/>
</clipPath>
</defs>
</svg>
